REM DIRINDEX 1\2,1\3
REM DIRNAME cjc143,folder01,folder02
TITLE ""
FILE "sample sentencesTrack21.mp3" MP3
  TRACK 01 AUDIO
    TITLE "3:cjc143_3071"
    INDEX 01 00:00:00
  TRACK 02 AUDIO
    TITLE "0:"
    INDEX 01 00:00:58
  TRACK 03 AUDIO
    TITLE "3:cjc143_3072"
    INDEX 01 00:01:26
  TRACK 04 AUDIO
    TITLE "0:"
    INDEX 01 00:04:40
  TRACK 05 AUDIO
    TITLE "3:cjc143_3073"
    INDEX 01 00:05:48
  TRACK 06 AUDIO
    TITLE "0:"
    INDEX 01 00:08:23
  TRACK 07 AUDIO
    TITLE "3:cjc143_3074"
    INDEX 01 00:09:32
  TRACK 08 AUDIO
    TITLE "0:"
    INDEX 01 00:13:26
  TRACK 09 AUDIO
    TITLE "3:cjc143_3075"
    INDEX 01 00:14:39
  TRACK 10 AUDIO
    TITLE "0:"
    INDEX 01 00:17:65
  TRACK 11 AUDIO
    TITLE "3:cjc143_3076"
    INDEX 01 00:18:74
  TRACK 12 AUDIO
    TITLE "0:"
    INDEX 01 00:21:33
  TRACK 13 AUDIO
    TITLE "3:cjc143_3077"
    INDEX 01 00:22:44
  TRACK 14 AUDIO
    TITLE "0:"
    INDEX 01 00:26:50
  TRACK 15 AUDIO
    TITLE "3:cjc143_3078"
    INDEX 01 00:27:61
  TRACK 16 AUDIO
    TITLE "0:"
    INDEX 01 00:30:55
  TRACK 17 AUDIO
    TITLE "3:cjc143_3079"
    INDEX 01 00:31:63
  TRACK 18 AUDIO
    TITLE "0:"
    INDEX 01 00:34:49
  TRACK 19 AUDIO
    TITLE "3:cjc143_3080"
    INDEX 01 00:35:57
  TRACK 20 AUDIO
    TITLE "0:"
    INDEX 01 00:38:08
  TRACK 21 AUDIO
    TITLE "3:cjc143_3081"
    INDEX 01 00:39:13
  TRACK 22 AUDIO
    TITLE "0:"
    INDEX 01 00:42:00
  TRACK 23 AUDIO
    TITLE "3:cjc143_3082"
    INDEX 01 00:43:09
  TRACK 24 AUDIO
    TITLE "0:"
    INDEX 01 00:45:47
  TRACK 25 AUDIO
    TITLE "3:cjc143_3083"
    INDEX 01 00:46:53
  TRACK 26 AUDIO
    TITLE "0:"
    INDEX 01 00:48:57
  TRACK 27 AUDIO
    TITLE "3:cjc143_3084"
    INDEX 01 00:49:69
  TRACK 28 AUDIO
    TITLE "0:"
    INDEX 01 00:51:65
  TRACK 29 AUDIO
    TITLE "3:cjc143_3085"
    INDEX 01 00:52:73
  TRACK 30 AUDIO
    TITLE "0:"
    INDEX 01 00:54:74
  TRACK 31 AUDIO
    TITLE "3:cjc143_3086"
    INDEX 01 00:56:06
  TRACK 32 AUDIO
    TITLE "0:"
    INDEX 01 00:59:30
  TRACK 33 AUDIO
    TITLE "3:cjc143_3087"
    INDEX 01 01:00:41
  TRACK 34 AUDIO
    TITLE "0:"
    INDEX 01 01:02:24
  TRACK 35 AUDIO
    TITLE "3:cjc143_3088"
    INDEX 01 01:03:31
  TRACK 36 AUDIO
    TITLE "0:"
    INDEX 01 01:05:40
  TRACK 37 AUDIO
    TITLE "3:cjc143_3089"
    INDEX 01 01:06:49
  TRACK 38 AUDIO
    TITLE "0:"
    INDEX 01 01:10:18
  TRACK 39 AUDIO
    TITLE "3:cjc143_3090"
    INDEX 01 01:11:31
  TRACK 40 AUDIO
    TITLE "0:"
    INDEX 01 01:16:30
  TRACK 41 AUDIO
    TITLE "3:cjc143_3091"
    INDEX 01 01:17:41
  TRACK 42 AUDIO
    TITLE "0:"
    INDEX 01 01:20:20
  TRACK 43 AUDIO
    TITLE "3:cjc143_3092"
    INDEX 01 01:21:29
  TRACK 44 AUDIO
    TITLE "0:"
    INDEX 01 01:23:62
  TRACK 45 AUDIO
    TITLE "3:cjc143_3093"
    INDEX 01 01:24:69
  TRACK 46 AUDIO
    TITLE "0:"
    INDEX 01 01:29:64
  TRACK 47 AUDIO
    TITLE "3:cjc143_3094"
    INDEX 01 01:30:73
  TRACK 48 AUDIO
    TITLE "0:"
    INDEX 01 01:33:01
  TRACK 49 AUDIO
    TITLE "3:cjc143_3095"
    INDEX 01 01:34:10
  TRACK 50 AUDIO
    TITLE "0:"
    INDEX 01 01:35:71
  TRACK 51 AUDIO
    TITLE "3:cjc143_3096"
    INDEX 01 01:37:11
  TRACK 52 AUDIO
    TITLE "0:"
    INDEX 01 01:39:35
  TRACK 53 AUDIO
    TITLE "3:cjc143_3097"
    INDEX 01 01:40:42
  TRACK 54 AUDIO
    TITLE "0:"
    INDEX 01 01:44:34
  TRACK 55 AUDIO
    TITLE "3:cjc143_3098"
    INDEX 01 01:45:57
  TRACK 56 AUDIO
    TITLE "0:"
    INDEX 01 01:50:39
  TRACK 57 AUDIO
    TITLE "3:cjc143_3099"
    INDEX 01 01:51:58
  TRACK 58 AUDIO
    TITLE "0:"
    INDEX 01 01:54:23
  TRACK 59 AUDIO
    TITLE "3:cjc143_3100"
    INDEX 01 01:55:32
  TRACK 60 AUDIO
    TITLE "0:"
    INDEX 01 01:58:17
  TRACK 61 AUDIO
    TITLE "3:cjc143_3101"
    INDEX 01 01:59:24
  TRACK 62 AUDIO
    TITLE "0:"
    INDEX 01 02:02:24
  TRACK 63 AUDIO
    TITLE "3:cjc143_3102"
    INDEX 01 02:03:38
  TRACK 64 AUDIO
    TITLE "0:"
    INDEX 01 02:05:66
  TRACK 65 AUDIO
    TITLE "3:cjc143_3103"
    INDEX 01 02:07:06
  TRACK 66 AUDIO
    TITLE "0:"
    INDEX 01 02:09:62
  TRACK 67 AUDIO
    TITLE "3:cjc143_3104"
    INDEX 01 02:10:69
  TRACK 68 AUDIO
    TITLE "0:"
    INDEX 01 02:14:16
  TRACK 69 AUDIO
    TITLE "3:cjc143_3105"
    INDEX 01 02:15:23
  TRACK 70 AUDIO
    TITLE "0:"
    INDEX 01 02:18:29
